<svg xmlns="http://www.w3.org/2000/svg" width="160" height="25" viewBox="0 0 160 25">
  <g id="Group_1712" data-name="Group 1712" transform="translate(-570.943 -89.944)">
    <path id="Path_806" data-name="Path 806" d="M11.284,5.32a10.316,10.316,0,0,1,4.415.833q1.762.833,1.762,2.133A1.56,1.56,0,0,1,17.092,9.3a1.163,1.163,0,0,1-.94.45,1.483,1.483,0,0,1-.688-.133,7.583,7.583,0,0,1-.688-.433,3.61,3.61,0,0,0-.638-.467A4.419,4.419,0,0,0,13,8.387a7.617,7.617,0,0,0-1.343-.133,5.918,5.918,0,0,0-3.089.8A5.467,5.467,0,0,0,6.484,11.27a6.71,6.71,0,0,0-.739,3.15,6.809,6.809,0,0,0,.722,3.167,5.45,5.45,0,0,0,2.031,2.2,5.615,5.615,0,0,0,2.988.8,6.37,6.37,0,0,0,2.82-.533,6.679,6.679,0,0,0,.638-.433,3.977,3.977,0,0,1,.587-.4,1.315,1.315,0,0,1,.621-.133,1.371,1.371,0,0,1,1.057.417,1.531,1.531,0,0,1,.386,1.083,1.848,1.848,0,0,1-.89,1.383,7.187,7.187,0,0,1-2.384,1.117,11.46,11.46,0,0,1-3.206.433,8.489,8.489,0,0,1-4.5-1.183,7.95,7.95,0,0,1-3-3.267,10.125,10.125,0,0,1-1.057-4.65A9.747,9.747,0,0,1,3.664,9.77,8.224,8.224,0,0,1,6.752,6.5,8.665,8.665,0,0,1,11.284,5.32Zm26.253,9.133a9.274,9.274,0,0,1-1.175,4.667,8.5,8.5,0,0,1-3.206,3.233,9.192,9.192,0,0,1-8.963,0,8.5,8.5,0,0,1-3.206-3.233,9.274,9.274,0,0,1-1.175-4.667,9.459,9.459,0,0,1,1.175-4.7,8.44,8.44,0,0,1,3.206-3.267,9.192,9.192,0,0,1,8.963,0,8.44,8.44,0,0,1,3.206,3.267A9.459,9.459,0,0,1,37.537,14.453Zm-3.189,0a6.73,6.73,0,0,0-.755-3.217,5.579,5.579,0,0,0-2.048-2.2,5.65,5.65,0,0,0-5.741,0,5.579,5.579,0,0,0-2.048,2.2A6.73,6.73,0,0,0,23,14.453a6.561,6.561,0,0,0,.755,3.167A5.607,5.607,0,0,0,25.8,19.8a5.65,5.65,0,0,0,5.741,0,5.607,5.607,0,0,0,2.048-2.183A6.562,6.562,0,0,0,34.348,14.453ZM50.193,5.32q6.043,0,6.043,7.2v9.067a1.567,1.567,0,0,1-.453,1.133,1.545,1.545,0,0,1-1.158.467A1.5,1.5,0,0,1,53.5,22.72a1.566,1.566,0,0,1-.453-1.133V12.553A4.975,4.975,0,0,0,52.14,9.42a3.511,3.511,0,0,0-2.954-1.167,5.08,5.08,0,0,0-2.434.583A4.473,4.473,0,0,0,45.04,10.4a3.948,3.948,0,0,0-.621,2.15v9.033a1.566,1.566,0,0,1-.453,1.133,1.545,1.545,0,0,1-1.158.467,1.518,1.518,0,0,1-1.141-.45,1.584,1.584,0,0,1-.436-1.15V7.32a1.567,1.567,0,0,1,.453-1.133,1.5,1.5,0,0,1,1.125-.467,1.545,1.545,0,0,1,1.158.467,1.566,1.566,0,0,1,.453,1.133V8.487a7.194,7.194,0,0,1,2.434-2.25A6.488,6.488,0,0,1,50.193,5.32ZM60,20.453a1.661,1.661,0,0,1-.3-.9,1.346,1.346,0,0,1,.7-1.133,1.32,1.32,0,0,1,.772-.233,1.545,1.545,0,0,1,1.108.5,7.085,7.085,0,0,0,2.165,1.7,6.246,6.246,0,0,0,2.77.567,4.754,4.754,0,0,0,2.249-.583,1.892,1.892,0,0,0,.974-1.783,1.913,1.913,0,0,0-.99-1.733,11.315,11.315,0,0,0-2.9-1.1A21.5,21.5,0,0,1,63.42,14.7a5.59,5.59,0,0,1-2.1-1.6,4.215,4.215,0,0,1-.856-2.75,4.249,4.249,0,0,1,.856-2.633A5.684,5.684,0,0,1,63.6,5.953,7.567,7.567,0,0,1,66.71,5.32a9.045,9.045,0,0,1,3.206.6,6.022,6.022,0,0,1,2.6,1.833,1.469,1.469,0,0,1,.4.967,1.429,1.429,0,0,1-.537,1.033,1.213,1.213,0,0,1-.839.3,1.262,1.262,0,0,1-.974-.4A4.722,4.722,0,0,0,68.842,8.42a5.757,5.757,0,0,0-2.266-.433,4.245,4.245,0,0,0-2.165.517,1.858,1.858,0,0,0-.89,1.75,1.936,1.936,0,0,0,1.024,1.733,13.082,13.082,0,0,0,3.038,1.1,18.818,18.818,0,0,1,2.954,1,5.149,5.149,0,0,1,1.981,1.583,4.4,4.4,0,0,1,.806,2.75,4.258,4.258,0,0,1-.906,2.717A5.841,5.841,0,0,1,70.051,22.9a7.9,7.9,0,0,1-3.105.617,10.248,10.248,0,0,1-3.911-.733A7.287,7.287,0,0,1,60,20.453Zm33.672-6a9.274,9.274,0,0,1-1.175,4.667,8.5,8.5,0,0,1-3.206,3.233,9.192,9.192,0,0,1-8.963,0,8.5,8.5,0,0,1-3.206-3.233,9.274,9.274,0,0,1-1.175-4.667,9.459,9.459,0,0,1,1.175-4.7,8.44,8.44,0,0,1,3.206-3.267,9.192,9.192,0,0,1,8.963,0,8.44,8.44,0,0,1,3.206,3.267A9.459,9.459,0,0,1,93.668,14.453Zm-3.189,0a6.73,6.73,0,0,0-.755-3.217,5.579,5.579,0,0,0-2.048-2.2,5.65,5.65,0,0,0-5.741,0,5.579,5.579,0,0,0-2.048,2.2,6.73,6.73,0,0,0-.755,3.217,6.561,6.561,0,0,0,.755,3.167A5.607,5.607,0,0,0,81.935,19.8a5.65,5.65,0,0,0,5.741,0,5.607,5.607,0,0,0,2.048-2.183A6.562,6.562,0,0,0,90.479,14.453Zm10.34,7.133a1.538,1.538,0,0,1-.47,1.133,1.56,1.56,0,0,1-1.141.467,1.5,1.5,0,0,1-1.125-.467,1.566,1.566,0,0,1-.453-1.133V.12a1.537,1.537,0,0,1,.47-1.133,1.56,1.56,0,0,1,1.141-.467,1.5,1.5,0,0,1,1.125.467A1.567,1.567,0,0,1,100.818.12Zm20.143-7.8a1.421,1.421,0,0,1-.5,1.017,1.616,1.616,0,0,1-1.108.417H107.533a5.686,5.686,0,0,0,5.841,5.367,6.27,6.27,0,0,0,2.619-.467,6.576,6.576,0,0,0,1.779-1.2,1.9,1.9,0,0,1,.974-.3,1.276,1.276,0,0,1,.957.4,1.3,1.3,0,0,1,.386.933,1.643,1.643,0,0,1-.671,1.267,7.91,7.91,0,0,1-2.585,1.633,8.533,8.533,0,0,1-3.29.667,9.782,9.782,0,0,1-4.784-1.133,7.926,7.926,0,0,1-3.189-3.167,9.343,9.343,0,0,1-1.125-4.6A10.081,10.081,0,0,1,105.6,9.7a8.357,8.357,0,0,1,3.055-3.25,7.917,7.917,0,0,1,8.107-.033,8.385,8.385,0,0,1,3.021,3.033A8.606,8.606,0,0,1,120.961,13.787Zm-8.225-5.533A5.214,5.214,0,0,0,109.48,9.3a5.161,5.161,0,0,0-1.813,3.25h9.9v-.267a4.064,4.064,0,0,0-1.595-2.9A5.069,5.069,0,0,0,112.736,8.253Z" transform="translate(609.982 91.424)" fill="#232f3e"/>
    <path id="Path_807" data-name="Path 807" d="M15.42,5.487a1.574,1.574,0,0,1,1.158.45,1.594,1.594,0,0,1,.453,1.183V21.587a1.566,1.566,0,0,1-.453,1.133,1.545,1.545,0,0,1-1.158.467,1.519,1.519,0,0,1-1.141-.45,1.584,1.584,0,0,1-.436-1.15V20.72A7.173,7.173,0,0,1,11.459,22.7,6.742,6.742,0,0,1,8.2,23.52a7.654,7.654,0,0,1-4.146-1.167A8.026,8.026,0,0,1,1.135,19.1,10.2,10.2,0,0,1,.078,14.42,10.2,10.2,0,0,1,1.135,9.737a8.068,8.068,0,0,1,2.9-3.25A7.454,7.454,0,0,1,8.1,5.32a7.54,7.54,0,0,1,3.307.733A6.841,6.841,0,0,1,13.842,7.92v-.8a1.642,1.642,0,0,1,.436-1.167A1.49,1.49,0,0,1,15.42,5.487Zm-6.848,15.1a5.013,5.013,0,0,0,2.8-.8,5.418,5.418,0,0,0,1.914-2.2,7.084,7.084,0,0,0,.688-3.167,7.007,7.007,0,0,0-.688-3.133A5.54,5.54,0,0,0,11.375,9.07a4.938,4.938,0,0,0-2.8-.817,5.013,5.013,0,0,0-2.8.8,5.418,5.418,0,0,0-1.914,2.2,7.084,7.084,0,0,0-.688,3.167,7.084,7.084,0,0,0,.688,3.167,5.418,5.418,0,0,0,1.914,2.2A5.013,5.013,0,0,0,8.571,20.587Zm16.651,1a1.537,1.537,0,0,1-.47,1.133,1.56,1.56,0,0,1-1.141.467,1.5,1.5,0,0,1-1.125-.467,1.566,1.566,0,0,1-.453-1.133V.12a1.537,1.537,0,0,1,.47-1.133,1.56,1.56,0,0,1,1.141-.467,1.5,1.5,0,0,1,1.125.467A1.566,1.566,0,0,1,25.223.12Zm9.7-12.767v9.933q0,1.667,1.511,1.667a2.446,2.446,0,0,0,.638-.117,2.446,2.446,0,0,1,.638-.117.924.924,0,0,1,.739.367,1.394,1.394,0,0,1-.5,2.133,3.368,3.368,0,0,1-1.813.5,8.283,8.283,0,0,1-2.031-.233,3.012,3.012,0,0,1-1.645-1.183,4.745,4.745,0,0,1-.722-2.883V8.82H29.788A1.439,1.439,0,0,1,28.731,8.4a1.418,1.418,0,0,1-.42-1.05,1.364,1.364,0,0,1,.42-1.033,1.472,1.472,0,0,1,1.057-.4h1.947V3.12a1.566,1.566,0,0,1,.453-1.133,1.545,1.545,0,0,1,1.158-.467,1.5,1.5,0,0,1,1.125.467,1.567,1.567,0,0,1,.453,1.133v2.8h2.786a1.439,1.439,0,0,1,1.057.417,1.418,1.418,0,0,1,.42,1.05,1.364,1.364,0,0,1-.42,1.033,1.472,1.472,0,0,1-1.057.4Z" transform="translate(570.865 91.424)" fill="#fe9d94"/>
  </g>
</svg>
